{
    "asset" : {
        "generator" : "Khronos glTF Blender I/O v3.3.32",
        "version" : "2.0"
    },
    "scene" : 0,
    "scenes" : [
        {
            "name" : "Scene",
            "nodes" : [
                0
            ]
        }
    ],
    "nodes" : [
        {
            "mesh" : 0,
            "name" : "Sphere",
            "translation" : [
                -2.4350476264953613,
                2.5328519344329834,
                0.4840046763420105
            ]
        }
    ],
    "materials" : [
        {
            "doubleSided" : true,
            "name" : "Material.001",
            "pbrMetallicRoughness" : {
                "baseColorFactor" : [
                    0.8000000715255737,
                    0,
                    0.0008587923948653042,
                    1
                ],
                "metallicFactor" : 0,
                "roughnessFactor" : 0.5
            }
        },
        {
            "doubleSided" : true,
            "name" : "Material.002",
            "pbrMetallicRoughness" : {
                "metallicFactor" : 0,
                "roughnessFactor" : 0.5
            }
        }
    ],
    "meshes" : [
        {
            "name" : "Sphere.001",
            "primitives" : [
                {
                    "attributes" : {
                        "POSITION" : 0,
                        "NORMAL" : 1,
                        "TEXCOORD_0" : 2
                    },
                    "indices" : 3,
                    "material" : 0
                },
                {
                    "attributes" : {
                        "POSITION" : 4,
                        "NORMAL" : 5,
                        "TEXCOORD_0" : 6
                    },
                    "indices" : 7,
                    "material" : 1
                }
            ]
        }
    ],
    "accessors" : [
        {
            "bufferView" : 0,
            "componentType" : 5126,
            "count" : 2329,
            "max" : [
                0.8707259893417358,
                2.37845778465271,
                1.5175858736038208
            ],
            "min" : [
                -1.190753698348999,
                -2.1617472171783447,
                -1
            ],
            "type" : "VEC3"
        },
        {
            "bufferView" : 1,
            "componentType" : 5126,
            "count" : 2329,
            "type" : "VEC3"
        },
        {
            "bufferView" : 2,
            "componentType" : 5126,
            "count" : 2329,
            "type" : "VEC2"
        },
        {
            "bufferView" : 3,
            "componentType" : 5123,
            "count" : 3480,
            "type" : "SCALAR"
        },
        {
            "bufferView" : 4,
            "componentType" : 5126,
            "count" : 320,
            "max" : [
                0.8700934052467346,
                0.5376152992248535,
                0.5242301225662231
            ],
            "min" : [
                -0.8797155022621155,
                -0.5024075508117676,
                -0.5164486169815063
            ],
            "type" : "VEC3"
        },
        {
            "bufferView" : 5,
            "componentType" : 5126,
            "count" : 320,
            "type" : "VEC3"
        },
        {
            "bufferView" : 6,
            "componentType" : 5126,
            "count" : 320,
            "type" : "VEC2"
        },
        {
            "bufferView" : 7,
            "componentType" : 5123,
            "count" : 564,
            "type" : "SCALAR"
        }
    ],
    "bufferViews" : [
        {
            "buffer" : 0,
            "byteLength" : 27948,
            "byteOffset" : 0,
            "target" : 34962
        },
        {
            "buffer" : 0,
            "byteLength" : 27948,
            "byteOffset" : 27948,
            "target" : 34962
        },
        {
            "buffer" : 0,
            "byteLength" : 18632,
            "byteOffset" : 55896,
            "target" : 34962
        },
        {
            "buffer" : 0,
            "byteLength" : 6960,
            "byteOffset" : 74528,
            "target" : 34963
        },
        {
            "buffer" : 0,
            "byteLength" : 3840,
            "byteOffset" : 81488,
            "target" : 34962
        },
        {
            "buffer" : 0,
            "byteLength" : 3840,
            "byteOffset" : 85328,
            "target" : 34962
        },
        {
            "buffer" : 0,
            "byteLength" : 2560,
            "byteOffset" : 89168,
            "target" : 34962
        },
        {
            "buffer" : 0,
            "byteLength" : 1128,
            "byteOffset" : 91728,
            "target" : 34963
        }
    ],
    "buffers" : [
        {
            "byteLength" : 92856,
            "uri" : "data:application/octet-stream;base64,"
        }
    ]
}
